# xmcd CD database file
#
# Track frame offsets:
#	150
#	23160
#	37662
#	51577
#	69450
#	86379
#	103945
#	130237
#	149982
#	166750
#	184335
#	201387
#	213212
#	236430
#	250932
#	269327
#	299562
#	332550
#
# Disc length: 4666 seconds
#
# Revision: 0
# Processed by: cddbd v1.4PL0 Copyright (c) Steve Scherf et al.
# Submitted via: CDex 1.50beta9
#
DISCID=15123812
DTITLE=Svensk Jazzhistoria - Vol 9 [CD1 of 4)
DYEAR=2003
DGENRE=Jazz
TTITLE0=Nils Lindberg/The Swedish Modern Jazz Group
TTITLE1=Nils Lindberg/The Swedish Modern Jazz Group
TTITLE2=Jan Johanssons Trio
TTITLE3=The Werner-Rosengren Swedish Jazz Quartet
TTITLE4=Arne Domnerus and his Orchestra
TTITLE5=Putte Wickmans Sextett
TTITLE6=The Sunsiders
TTITLE7=Rune Gustavsson and Band
TTITLE8=Harry Arnolds Radioband
TTITLE9=Ingvar Johanssons Trio
TTITLE10=Staffan Abeleen's Quintett
TTITLE11=Carl Henrik Norlins Orkester
TTITLE12=Lars Gullins Oktett
TTITLE13=Rune Öfwerman Trio
TTITLE14=Staffan Abeleen Quintet
TTITLE15=Eje Thelins Kvintett
TTITLE16=Bertil Lövgren-Bosse Wärmell
TTITLE17=Rolf Ericsson-Bosse Wärmell
EXTD=YEAR: 2003
EXTT0=
EXTT1=
EXTT2=
EXTT3=
EXTT4=
EXTT5=
EXTT6=
EXTT7=
EXTT8=
EXTT9=
EXTT10=
EXTT11=
EXTT12=
EXTT13=
EXTT14=
EXTT15=
EXTT16=
EXTT17=
PLAYORDER=
